<?xml version="1.0" encoding="UTF-8"?>
<svg id="Layer_7" data-name="Layer 7" xmlns="http://www.w3.org/2000/svg" xmlns:xlink="http://www.w3.org/1999/xlink" viewBox="0 0 350 350">
  <defs>
    <style>
      .cls-1 {
        fill: #f7f1e4;
      }

      .cls-2 {
        fill: #95abf3;
      }

      .cls-3 {
        fill: #f98c50;
      }

      .cls-4 {
        fill: url(#linear-gradient-2);
      }

      .cls-5 {
        fill: #8c29bf;
      }

      .cls-6 {
        fill: #fdfdff;
      }

      .cls-7 {
        fill: url(#linear-gradient);
      }

      .cls-8 {
        fill: #4d2a9c;
      }

      .cls-9 {
        fill: #d33dc8;
      }

      .cls-10 {
        fill: #802dc2;
      }

      .cls-11 {
        fill: #f6caa4;
      }

      .cls-12 {
        fill: #e8e9fe;
      }

      .cls-13 {
        fill: #9d2ec5;
      }

      .cls-14 {
        fill: #fcbdbf;
      }

      .cls-15 {
        fill: #c045d2;
      }

      .cls-16 {
        fill: #a82bc7;
      }

      .cls-17 {
        fill: #3a65d2;
      }

      .cls-18 {
        fill: #e9eafe;
      }

      .cls-19 {
        fill: #7088ec;
      }

      .cls-20 {
        fill: #fda2a5;
      }

      .cls-21 {
        fill: #baccfb;
      }

      .cls-22 {
        fill: #7797f1;
      }

      .cls-23 {
        fill: #ededef;
      }

      .cls-24 {
        fill: #44b1e9;
      }

      .cls-25 {
        fill: #f9eafc;
      }

      .cls-26 {
        fill: #f0f0f2;
      }

      .cls-27 {
        fill: #cdc9ed;
      }
    </style>
    <linearGradient id="linear-gradient" x1="100.73" y1="104.53" x2="133.94" y2="123.54" gradientUnits="userSpaceOnUse">
      <stop offset="0" stop-color="#fca251"/>
      <stop offset="1" stop-color="#fdba4b"/>
    </linearGradient>
    <linearGradient id="linear-gradient-2" x1="23.63" y1="34.18" x2="97.7" y2="90.73" gradientUnits="userSpaceOnUse">
      <stop offset="0" stop-color="#f32a90"/>
      <stop offset="1" stop-color="#fa7e46"/>
    </linearGradient>
  </defs>
  <g id="Generative_Object" data-name="Generative Object">
    <path class="cls-12" d="M216.94,68c10.1-1.97,11.99,5.86,16.49,6.99,3.82.96,28.4-1.18,26.21,6.11-1.1,1.51-3.38,1.78-5.01,2.04-4.77.76-54.16,1-57.72,0-3.06-.86-2.19-3.77,0-5.24,2.56-1.72,6.74-.66,9.42-1.75,2.19-.89,6.46-7.34,10.6-8.15Z"/>
    <path class="cls-18" d="M245.8,101.17c3.33.07,9.03-.34,11.78,1.75,3.04,2.31,2.41,4.96-1.18,5.82-3.02.72-48.23.69-51.83,0-4.52-.86-3.74-3.2,0-4.66,4.57-1.78,34.87-3.05,41.23-2.91Z"/>
    <g>
      <g>
        <path class="cls-8" d="M263.76,311.31c-54.92,41.33-136.37,41.74-190.82-.58,42.54-26.11,87.34-48.3,134.58-65.19,18.88,21.77,36.26,44.95,56.25,65.78Z"/>
        <path class="cls-20" d="M114.16,150.07c1.09,7.01,2.05,9.97,8.83,12.81,1.43.6,2.98,1.79,4.71,1.75l25.33,27.65c-3.26,1.72-14.24,8.68-17.37,7.86-2.64-.69-14.47-16.65-21.79-18.63-6.3-1.7-15.98,1.5-21.2,0-1.61-.46-21.73-21.69-23.26-23.87-.04-.44-.09-.64-.59-.58-.52-.93-1.25-.3-1.18-1.46.54-.41.84-.87,1.18-1.46l32.98-9.9c2.65,1.21,10.37,5.35,12.37,5.82Z"/>
        <path class="cls-14" d="M101.8,144.25l-32.98,9.9c3.31-5.78,18.65-11.55,24.74-13.97,2.7,1.37,5.5,2.82,8.25,4.07Z"/>
        <path class="cls-6" d="M69.4,157.64s-.19.13-.59-.58c.5-.06.55.14.59.58Z"/>
        <g>
          <path class="cls-16" d="M49.38,144.25c4.94,13.4-.8,29.77,6.77,42.49,1.14.37,6.74-6.7,8.25-7.57,9.01-5.17,17.52,5.49,26.21,2.33,5.76,2.34,10.64.3,16.2,1.16,8.77,1.37,30.27,23.79,39.75,30.27,5.45,3.72,13.25,9.92,19.73,9.31-4.61-1.19-9.99-3.72-12.07-8.15,9.68,5.09,21.54,8.59,32.39,5.82,1.73,2.1,19.02,21.53,17.96,22.7-35.72,10.96-72.63,18.76-107.78,31.43-12.51,4.51-33.45,12.21-43.88,19.79-14.68-13.7-26.36-31.65-34.16-50.06,1.61-.61-.56-2.54,0-3.2,1-1.17,26.86-1.67,30.92-2.04,16.99-1.56,34.03-3.91,50.94-6.11-1.53-1.57-4.8.81-6.18.29-.35-.13.02-1.85-1.77-2.33-8.34-2.25-40.06-14.01-44.76-13.39-6.29.83-29.54,19.38-31.21,18.63l-3.83-7.57c-4.86-16.09-7.51-32.9-7.07-49.77,4-1.08,8.02-2.69,11.48-4.95,9.46-6.17,23.45-25.17,32.1-29.1Z"/>
          <path class="cls-5" d="M18.75,243.79c-2.16-5.09-4.29-10.43-5.89-15.72l3.83,7.57c1.67.76,24.92-17.8,31.21-18.63,4.7-.62,36.42,11.14,44.76,13.39,1.78.48,1.41,2.2,1.77,2.33,1.39.52,4.65-1.86,6.18-.29-16.91,2.21-33.96,4.55-50.94,6.11-4.06.37-29.92.86-30.92,2.04-.56.66,1.61,2.59,0,3.2Z"/>
          <path class="cls-9" d="M68.23,159.97c4.34,4.25,18.03,19.77,22.38,21.54-8.68,3.16-17.2-7.5-26.21-2.33-1.51.87-7.11,7.94-8.25,7.57-7.58-12.72-1.84-29.09-6.77-42.49.13-.06.45-1.59,2.06-1.16,5.33,5.91,11.11,11.32,16.79,16.88Z"/>
          <path class="cls-25" d="M154.21,214.1c2.08,4.43,7.46,6.96,12.07,8.15-6.48.6-14.28-5.59-19.73-9.31,2.5-2.52-.19-2.2-.59-4.66,2.45,2.02,5.44,4.35,8.25,5.82Z"/>
        </g>
        <g>
          <path class="cls-17" d="M270.83,167.53l10.9,20.96c9.06-4.51,18.51-8.54,27.39-13.39l21.79,6.69c-.3,23.63-5.61,45.82-15.31,67.23l-60.07-13.39c-5.19-1.3-16.61,1.1-20.91,0-3.51-.9-20.35-16.41-23.26-20.37,15.59-3.52,31.9-6.23,46.23-13.39,3.45-1.73,6.83-5.07,10.31-6.99,2.08-1.15,4.28-1.39,6.18-2.33.54-.27.21-1.12.29-1.16.28-.13,4.15.58,5.3-2.04.11-1.08-9.68-15.37-10.6-18.92-.2-.78-.96-1.44-.59-2.62.72-1.13,2.26-.22,2.36-.29Z"/>
          <path class="cls-24" d="M315.59,249.03c-7.49,16.53-17.57,31.99-30.63,44.82-13.56-18.93-29.5-38.52-46.53-54.43-.23-1.97,15.1-2.48,17.08-3.78l60.07,13.39Z"/>
          <path class="cls-22" d="M254.92,171.61c.61.6,1.62,1.25,2.36,1.75-17.02,7.83-29.87,21.6-41.82,35.51-1.7,1.98-3.26,4.16-5.3,5.82-10.3-10.79-20.05-22.11-30.04-33.18,1.94-1.16,5.8-4.51,7.95-4.66,3.37-.23,5.82,2.93,7.07,2.91,1.09-.02,8.72-5.46,11.78-5.82,5.71-.68,7.42,1.77,12.07,3.49.07.03-.38,1.41.88,1.16,2.28-.44,5.62-13.51,17.08-12.22,5.47.62,12.94,7.84,17.96,5.24Z"/>
          <path class="cls-2" d="M220.18,137.26l-1.18,40.16c-4.66-1.73-6.37-4.17-12.07-3.49-3.06.36-10.69,5.8-11.78,5.82-1.25.02-3.7-3.14-7.07-2.91-2.16.15-6.01,3.49-7.95,4.66-1.22-1.35-2.33-2.73-3.53-4.07l43.58-40.16Z"/>
          <path class="cls-21" d="M254.92,171.61c-5.02,2.61-12.49-4.62-17.96-5.24-11.46-1.29-14.8,11.79-17.08,12.22-1.26.24-.81-1.14-.88-1.16l1.18-40.16c12.02,11,23.15,22.93,34.75,34.34Z"/>
          <path class="cls-19" d="M186.61,219.92c-10.85,2.77-22.71-.73-32.39-5.82-2.8-1.48-5.8-3.8-8.25-5.82-.9-.74-5.65-3.95-5.3-4.95l20.91-13.1c8.52,9.76,16.81,19.69,25.03,29.69Z"/>
          <g>
            <path class="cls-23" d="M309.11,175.1c-8.88,4.85-18.32,8.87-27.39,13.39l-10.9-20.96c7.75-5.55,54.38-31.63,61.55-32.6,10.51-1.42,15.68,6.11,10.9,15.43-5.63,10.95-24.16,17.59-33.86,22.99-.6.33-.16,1.67-.29,1.75Z"/>
            <path class="cls-15" d="M258.46,173.35c-1.84,3.84,3.88,7.05,5.3,9.6.53.95.51,3.06.59,3.2l-46.23,23.87-2.65-1.16c11.94-13.91,24.79-27.68,41.82-35.51.24-.11.92.11,1.18,0Z"/>
            <path class="cls-10" d="M265.53,174.52c3.25,5.38,6.38,11.08,8.83,16.88-.08.04.25.9-.29,1.16-1.91.94-4.1,1.18-6.18,2.33.76-2.97-2.17-6.09-3.53-8.73-.07-.14-.06-2.25-.59-3.2-1.42-2.56-7.14-5.76-5.3-9.6.68-.29,4.73-2.99,5.01-2.91,1.08,1.16,1.26,2.75,2.06,4.07Z"/>
            <path class="cls-6" d="M274.36,191.4c-2.45-5.8-5.58-11.5-8.83-16.88,5.57.19-1.21-3.59,3.53-4.07.92,3.55,10.71,17.84,10.6,18.92-1.15,2.62-5.02,1.9-5.3,2.04Z"/>
            <path class="cls-13" d="M264.35,186.16c1.37,2.64,4.29,5.76,3.53,8.73-3.47,1.92-6.85,5.26-10.31,6.99-14.33,7.16-30.64,9.87-46.23,13.39l-1.18-.58c2.04-1.66,3.6-3.84,5.3-5.82l2.65,1.16,46.23-23.87Z"/>
          </g>
        </g>
      </g>
      <g>
        <path class="cls-26" d="M52.91,293.85c10.43-7.58,31.37-15.28,43.88-19.79,35.15-12.67,72.06-20.48,107.78-31.43,1.06-1.17-16.23-20.6-17.96-22.7-8.22-9.99-16.51-19.93-25.03-29.69l-20.91,13.1c-.35.99,4.4,4.2,5.3,4.95.4,2.46,3.09,2.14.59,4.66-9.49-6.48-30.99-28.9-39.75-30.27-5.55-.87-10.43,1.18-16.2-1.16-4.35-1.77-18.05-17.29-22.38-21.54,1.53.31,1.28-1.05,1.18-2.33,1.54,2.18,21.65,23.4,23.26,23.87,5.23,1.5,14.9-1.7,21.2,0,7.32,1.98,19.15,17.94,21.79,18.63,3.14.82,14.12-6.14,17.37-7.86l-25.33-27.65c5.72-.15,16.9-15.69,22.38-19.21,3.82,11.48,19,23.63,26.5,32.01,1.2,1.34,2.31,2.72,3.53,4.07,9.99,11.07,19.73,22.39,30.04,33.18l1.18.58c2.92,3.96,19.75,19.48,23.26,20.37,4.3,1.1,15.71-1.3,20.91,0-1.98,1.31-17.31,1.81-17.08,3.78,17.03,15.9,32.97,35.5,46.53,54.43,2.65,3.7,17.75,24.93,18.26,27.65,1.83,9.81-6.46,18.22-16.2,13.1-2.08-1.1-20.15-20.04-23.26-23.28-19.99-20.82-37.37-44.01-56.25-65.78-47.23,16.89-92.04,39.08-134.58,65.19"/>
        <path class="cls-7" d="M138.9,131.44c-3.38.59-16.3,16.88-20.32,18.63-1.69.73-2.73.4-4.42,0-2-.47-9.71-4.61-12.37-5.82s-5.54-2.71-8.25-4.07c-5.97-3.02-12.28-6.38-17.96-9.9-1.09-.67-5.4-3.08-5.01-4.66,19.72,3.04,52.37-27.47,51.83-47.73l.59-.87c7.36,16.95,14.05,36,15.9,54.43Z"/>
        <path class="cls-1" d="M122.41,77.89c.54,20.26-32.11,50.77-51.83,47.73-3.57-.55-5.63-3.86-7.66-5.82,3.25.08,6.39-.8,9.42-1.75,15.04-4.69,43.32-28.34,43.58-44.82,3.93-1.18,3.5,3.52,6.48,4.66Z"/>
        <path class="cls-6" d="M147.73,136.68l-24.74,26.19c-6.79-2.83-7.75-5.8-8.83-12.81,1.69.4,2.72.73,4.42,0,4.02-1.74,16.94-18.04,20.32-18.63,4.69-.81,6.76,1.89,8.83,5.24Z"/>
        <path class="cls-27" d="M150.09,145.41c-5.48,3.52-16.66,19.06-22.38,19.21-1.73.05-3.28-1.15-4.71-1.75l24.74-26.19c3.65,5.89.96,4.53,2.36,8.73Z"/>
        <path class="cls-3" d="M72.35,118.06c-3.04.95-6.18,1.83-9.42,1.75-1.7-1.65-4.91-3.36-4.71-5.82,4.39,1.72,9.98,1.47,14.13,4.07Z"/>
        <g>
          <path class="cls-4" d="M115.93,73.23c-.26,16.48-28.55,40.13-43.58,44.82-4.16-2.61-9.74-2.35-14.13-4.07-13.3-5.23-26.75-21.76-30.63-35.22-3.72-12.93-1.26-27.81-10.01-39h10.6l-3.83-27.65c6.38,1.47,19.78,7.45,25.91,6.4.29-.05-.55-1.66.59-1.75,20.72-1.63,46.77,14.17,56.83,31.72,2.84,4.95,8.33,19.38,8.25,24.74Z"/>
          <g>
            <path class="cls-11" d="M51.44,70.91c1.03-.71,17.7,13.16,20.91,13.68-4.19,3.78-25.7-10.36-20.91-13.68Z"/>
            <path class="cls-11" d="M90.31,40.06c10.42,8.1,17.76,21.3,18.85,34.34l-6.77-17.75-12.07-16.59Z"/>
            <path class="cls-11" d="M35.83,68.58l1.18-1.16c.46,1.33,7.9,15.19,6.77,15.72-4.22-3.93-6.29-9.14-7.95-14.55Z"/>
            <path class="cls-11" d="M35.24,61.59h-1.18c-.39-3.25-1.03-6.6-.29-9.9.89,3.02.76,6.97,1.47,9.9Z"/>
            <path class="cls-11" d="M35.83,63.92c.08.27.98,1.71,1.18,2.33h-1.77c-.19-.79-.43-1.44-.59-2.33h1.18Z"/>
          </g>
        </g>
      </g>
    </g>
  </g>
</svg>